<svg width="32" height="32" viewBox="0 0 32 32" fill="none" xmlns="http://www.w3.org/2000/svg">
<path d="M17.3333 5.33325H22.6667V10.6666H17.3333V22.6666C17.3333 23.9999 16.5333 26.6666 13.3333 26.6666C10.1333 26.6666 9.33333 23.9999 9.33333 22.6666C9.33333 21.3333 10.1333 18.6666 13.3333 18.6666C16.5333 18.6666 17.3333 21.3333 17.3333 22.6666V5.33325Z" fill="white"/>
<path d="M17.3333 22.6666V10.6666V22.6666ZM17.3333 22.6666C17.3333 23.9999 16.5333 26.6666 13.3333 26.6666C10.1333 26.6666 9.33333 23.9999 9.33333 22.6666C9.33333 21.3333 10.1333 18.6666 13.3333 18.6666C16.5333 18.6666 17.3333 21.3333 17.3333 22.6666ZM17.3333 10.6666V5.33325H22.6667V10.6666H17.3333Z" stroke="white" stroke-width="2" stroke-linecap="round" stroke-linejoin="round"/>
</svg>
